<mxfile host="Electron" agent="Mozilla/5.0 (Macintosh; Intel Mac OS X 10_15_7) AppleWebKit/537.36 (KHTML, like Gecko) draw.io/26.0.9 Chrome/128.0.6613.186 Electron/32.2.5 Safari/537.36" version="26.0.9">
  <diagram name="Page-1" id="VOynZer4dO6frkGX0q3r">
    <mxGraphModel dx="2493" dy="1534" grid="0" gridSize="10" guides="1" tooltips="1" connect="1" arrows="1" fold="1" page="0" pageScale="1" pageWidth="850" pageHeight="1100" math="0" shadow="0">
      <root>
        <mxCell id="0" />
        <mxCell id="1" parent="0" />
        <mxCell id="XL5NGab5W7cVgB7Eb7kB-7" value="VPC" style="sketch=0;outlineConnect=0;gradientColor=none;html=1;whiteSpace=wrap;fontSize=12;fontStyle=0;shape=mxgraph.aws4.group;grIcon=mxgraph.aws4.group_vpc;strokeColor=light-dark(#000000, #6a7377);fillColor=none;verticalAlign=top;align=left;spacingLeft=30;fontColor=#879196;dashed=0;strokeWidth=2;" parent="1" vertex="1">
          <mxGeometry x="294" y="147" width="945" height="583" as="geometry" />
        </mxCell>
        <mxCell id="XL5NGab5W7cVgB7Eb7kB-4" style="edgeStyle=orthogonalEdgeStyle;rounded=0;orthogonalLoop=1;jettySize=auto;html=1;" parent="1" source="XL5NGab5W7cVgB7Eb7kB-1" target="XL5NGab5W7cVgB7Eb7kB-2" edge="1">
          <mxGeometry relative="1" as="geometry" />
        </mxCell>
        <mxCell id="XL5NGab5W7cVgB7Eb7kB-8" value="WS&amp;nbsp;&lt;div&gt;request&lt;/div&gt;" style="edgeLabel;html=1;align=center;verticalAlign=middle;resizable=0;points=[];" parent="XL5NGab5W7cVgB7Eb7kB-4" vertex="1" connectable="0">
          <mxGeometry x="0.0444" y="1" relative="1" as="geometry">
            <mxPoint as="offset" />
          </mxGeometry>
        </mxCell>
        <mxCell id="XL5NGab5W7cVgB7Eb7kB-1" value="" style="shape=actor;whiteSpace=wrap;html=1;" parent="1" vertex="1">
          <mxGeometry x="-2" y="390" width="40" height="60" as="geometry" />
        </mxCell>
        <mxCell id="XL5NGab5W7cVgB7Eb7kB-5" style="edgeStyle=orthogonalEdgeStyle;rounded=0;orthogonalLoop=1;jettySize=auto;html=1;exitX=1;exitY=0.5;exitDx=0;exitDy=0;exitPerimeter=0;" parent="1" source="XL5NGab5W7cVgB7Eb7kB-2" target="XL5NGab5W7cVgB7Eb7kB-3" edge="1">
          <mxGeometry relative="1" as="geometry" />
        </mxCell>
        <mxCell id="XL5NGab5W7cVgB7Eb7kB-10" value="forward&lt;br&gt;request" style="edgeLabel;html=1;align=center;verticalAlign=middle;resizable=0;points=[];" parent="XL5NGab5W7cVgB7Eb7kB-5" vertex="1" connectable="0">
          <mxGeometry x="-0.2258" y="-1" relative="1" as="geometry">
            <mxPoint as="offset" />
          </mxGeometry>
        </mxCell>
        <mxCell id="XL5NGab5W7cVgB7Eb7kB-2" value="" style="sketch=0;points=[[0,0,0],[0.25,0,0],[0.5,0,0],[0.75,0,0],[1,0,0],[0,1,0],[0.25,1,0],[0.5,1,0],[0.75,1,0],[1,1,0],[0,0.25,0],[0,0.5,0],[0,0.75,0],[1,0.25,0],[1,0.5,0],[1,0.75,0]];outlineConnect=0;fontColor=#232F3E;fillColor=#8C4FFF;strokeColor=#ffffff;dashed=0;verticalLabelPosition=bottom;verticalAlign=top;align=center;html=1;fontSize=12;fontStyle=0;aspect=fixed;shape=mxgraph.aws4.resourceIcon;resIcon=mxgraph.aws4.api_gateway;" parent="1" vertex="1">
          <mxGeometry x="131" y="381" width="78" height="78" as="geometry" />
        </mxCell>
        <mxCell id="XL5NGab5W7cVgB7Eb7kB-14" style="edgeStyle=orthogonalEdgeStyle;rounded=0;orthogonalLoop=1;jettySize=auto;html=1;" parent="1" source="XL5NGab5W7cVgB7Eb7kB-3" target="XL5NGab5W7cVgB7Eb7kB-13" edge="1">
          <mxGeometry relative="1" as="geometry" />
        </mxCell>
        <mxCell id="XL5NGab5W7cVgB7Eb7kB-3" value="ecs-web" style="sketch=0;outlineConnect=0;fontColor=#232F3E;gradientColor=none;fillColor=#8C4FFF;strokeColor=none;dashed=0;verticalLabelPosition=bottom;verticalAlign=top;align=center;html=1;fontSize=12;fontStyle=0;aspect=fixed;pointerEvents=1;shape=mxgraph.aws4.application_load_balancer;" parent="1" vertex="1">
          <mxGeometry x="320" y="381" width="78" height="78" as="geometry" />
        </mxCell>
        <mxCell id="XL5NGab5W7cVgB7Eb7kB-17" style="edgeStyle=orthogonalEdgeStyle;rounded=0;orthogonalLoop=1;jettySize=auto;html=1;" parent="1" source="XL5NGab5W7cVgB7Eb7kB-13" target="XL5NGab5W7cVgB7Eb7kB-16" edge="1">
          <mxGeometry relative="1" as="geometry" />
        </mxCell>
        <mxCell id="XL5NGab5W7cVgB7Eb7kB-39" value="GET /v1/{{vin}}" style="edgeLabel;html=1;align=center;verticalAlign=middle;resizable=0;points=[];" parent="XL5NGab5W7cVgB7Eb7kB-17" vertex="1" connectable="0">
          <mxGeometry x="-0.0273" y="-4" relative="1" as="geometry">
            <mxPoint y="-4" as="offset" />
          </mxGeometry>
        </mxCell>
        <mxCell id="XL5NGab5W7cVgB7Eb7kB-97" style="edgeStyle=orthogonalEdgeStyle;rounded=0;orthogonalLoop=1;jettySize=auto;html=1;exitX=0.5;exitY=0;exitDx=0;exitDy=0;exitPerimeter=0;" parent="1" source="XL5NGab5W7cVgB7Eb7kB-16" target="XL5NGab5W7cVgB7Eb7kB-21" edge="1">
          <mxGeometry relative="1" as="geometry" />
        </mxCell>
        <mxCell id="XL5NGab5W7cVgB7Eb7kB-98" value="cache WS" style="edgeLabel;html=1;align=center;verticalAlign=middle;resizable=0;points=[];" parent="XL5NGab5W7cVgB7Eb7kB-97" vertex="1" connectable="0">
          <mxGeometry x="0.147" y="-2" relative="1" as="geometry">
            <mxPoint as="offset" />
          </mxGeometry>
        </mxCell>
        <mxCell id="XL5NGab5W7cVgB7Eb7kB-16" value="WS&amp;nbsp;&lt;div&gt;microservice&lt;/div&gt;" style="outlineConnect=0;dashed=0;verticalLabelPosition=bottom;verticalAlign=top;align=center;html=1;shape=mxgraph.aws3.ec2;fillColor=#F58534;gradientColor=none;" parent="1" vertex="1">
          <mxGeometry x="753" y="373.5" width="76.5" height="93" as="geometry" />
        </mxCell>
        <mxCell id="XL5NGab5W7cVgB7Eb7kB-13" value="recon&lt;div&gt;appservice&lt;/div&gt;" style="outlineConnect=0;dashed=0;verticalLabelPosition=bottom;verticalAlign=top;align=center;html=1;shape=mxgraph.aws3.ec2;fillColor=#F58534;gradientColor=none;" parent="1" vertex="1">
          <mxGeometry x="470" y="373.5" width="76.5" height="93" as="geometry" />
        </mxCell>
        <mxCell id="XL5NGab5W7cVgB7Eb7kB-21" value="" style="sketch=0;outlineConnect=0;fontColor=#232F3E;gradientColor=none;fillColor=#C925D1;strokeColor=none;dashed=0;verticalLabelPosition=bottom;verticalAlign=top;align=center;html=1;fontSize=12;fontStyle=0;aspect=fixed;pointerEvents=1;shape=mxgraph.aws4.elasticache_for_redis;" parent="1" vertex="1">
          <mxGeometry x="753" y="178" width="78" height="69" as="geometry" />
        </mxCell>
        <mxCell id="XL5NGab5W7cVgB7Eb7kB-53" style="edgeStyle=orthogonalEdgeStyle;rounded=0;orthogonalLoop=1;jettySize=auto;html=1;" parent="1" source="XL5NGab5W7cVgB7Eb7kB-27" edge="1">
          <mxGeometry relative="1" as="geometry">
            <Array as="points">
              <mxPoint x="1185" y="417" />
              <mxPoint x="1185" y="101" />
              <mxPoint x="1395" y="101" />
            </Array>
            <mxPoint x="1395" y="101" as="targetPoint" />
          </mxGeometry>
        </mxCell>
        <mxCell id="XL5NGab5W7cVgB7Eb7kB-73" value="&lt;b&gt;GET /oemPDFURL&lt;/b&gt;" style="edgeLabel;html=1;align=center;verticalAlign=middle;resizable=0;points=[];" parent="XL5NGab5W7cVgB7Eb7kB-53" vertex="1" connectable="0">
          <mxGeometry x="-0.2726" y="3" relative="1" as="geometry">
            <mxPoint x="-1" y="-59" as="offset" />
          </mxGeometry>
        </mxCell>
        <mxCell id="BDJuLJ0R6PO3ZfZwG7WT-12" style="edgeStyle=orthogonalEdgeStyle;rounded=0;orthogonalLoop=1;jettySize=auto;html=1;exitX=1;exitY=0.5;exitDx=0;exitDy=0;exitPerimeter=0;entryX=0;entryY=0.5;entryDx=0;entryDy=0;" parent="1" source="XL5NGab5W7cVgB7Eb7kB-27" target="XL5NGab5W7cVgB7Eb7kB-79" edge="1">
          <mxGeometry relative="1" as="geometry">
            <Array as="points">
              <mxPoint x="1185" y="417" />
              <mxPoint x="1185" y="860" />
            </Array>
          </mxGeometry>
        </mxCell>
        <mxCell id="BDJuLJ0R6PO3ZfZwG7WT-13" value="&lt;b&gt;GET /buildData&lt;/b&gt;" style="edgeLabel;html=1;align=center;verticalAlign=middle;resizable=0;points=[];" parent="BDJuLJ0R6PO3ZfZwG7WT-12" vertex="1" connectable="0">
          <mxGeometry x="-0.2315" relative="1" as="geometry">
            <mxPoint y="-1" as="offset" />
          </mxGeometry>
        </mxCell>
        <mxCell id="xIlVtN34nXRh2zik4boM-7" value="" style="edgeStyle=orthogonalEdgeStyle;rounded=0;orthogonalLoop=1;jettySize=auto;html=1;" parent="1" source="XL5NGab5W7cVgB7Eb7kB-27" target="xIlVtN34nXRh2zik4boM-6" edge="1">
          <mxGeometry relative="1" as="geometry" />
        </mxCell>
        <mxCell id="XL5NGab5W7cVgB7Eb7kB-27" value="&lt;span style=&quot;color: rgb(22, 25, 31); font-family: &amp;quot;Amazon Ember&amp;quot;, &amp;quot;Helvetica Neue&amp;quot;, Roboto, Arial, sans-serif; text-align: start; white-space: pre-wrap; background-color: rgb(255, 255, 255);&quot;&gt;&lt;font&gt;api.reconvelocity.com/v2/windowsticker&lt;/font&gt;&lt;/span&gt;" style="outlineConnect=0;dashed=0;verticalLabelPosition=bottom;verticalAlign=top;align=center;html=1;shape=mxgraph.aws3.lambda_function;fillColor=#F58534;gradientColor=none;" parent="1" vertex="1">
          <mxGeometry x="1008" y="381" width="69" height="72" as="geometry" />
        </mxCell>
        <mxCell id="XL5NGab5W7cVgB7Eb7kB-28" style="edgeStyle=orthogonalEdgeStyle;rounded=0;orthogonalLoop=1;jettySize=auto;html=1;exitX=1;exitY=0.5;exitDx=0;exitDy=0;exitPerimeter=0;entryX=0;entryY=0.5;entryDx=0;entryDy=0;entryPerimeter=0;" parent="1" source="XL5NGab5W7cVgB7Eb7kB-16" target="XL5NGab5W7cVgB7Eb7kB-27" edge="1">
          <mxGeometry relative="1" as="geometry" />
        </mxCell>
        <mxCell id="XL5NGab5W7cVgB7Eb7kB-38" value="getWindowSticker()" style="edgeLabel;html=1;align=center;verticalAlign=middle;resizable=0;points=[];" parent="XL5NGab5W7cVgB7Eb7kB-28" vertex="1" connectable="0">
          <mxGeometry x="-0.1148" y="-1" relative="1" as="geometry">
            <mxPoint x="13" y="-4" as="offset" />
          </mxGeometry>
        </mxCell>
        <mxCell id="XL5NGab5W7cVgB7Eb7kB-37" value="&lt;h1 style=&quot;margin-top: 0px;&quot;&gt;&lt;font style=&quot;font-size: 16px;&quot;&gt;Functionality&lt;/font&gt;&lt;/h1&gt;&lt;p&gt;&lt;/p&gt;&lt;ol&gt;&lt;li&gt;function 1: / GET oemPdfUrl&lt;/li&gt;&lt;li&gt;function 2: / GET buildData&lt;/li&gt;&lt;li&gt;function 3: / GET vinDecode&lt;/li&gt;&lt;/ol&gt;&lt;p&gt;&lt;/p&gt;&lt;p&gt;&lt;br&gt;&lt;/p&gt;" style="text;html=1;whiteSpace=wrap;overflow=hidden;rounded=0;strokeColor=default;" parent="1" vertex="1">
          <mxGeometry x="914" y="509" width="221" height="130" as="geometry" />
        </mxCell>
        <mxCell id="BDJuLJ0R6PO3ZfZwG7WT-30" style="edgeStyle=orthogonalEdgeStyle;rounded=0;orthogonalLoop=1;jettySize=auto;html=1;exitX=0;exitY=0.5;exitDx=0;exitDy=0;exitPerimeter=0;" parent="1" source="XL5NGab5W7cVgB7Eb7kB-40" edge="1">
          <mxGeometry relative="1" as="geometry">
            <Array as="points">
              <mxPoint x="1514" y="470" />
            </Array>
            <mxPoint x="1514" y="267" as="targetPoint" />
          </mxGeometry>
        </mxCell>
        <mxCell id="BDJuLJ0R6PO3ZfZwG7WT-31" value="&lt;span style=&quot;color: rgba(0, 0, 0, 0); font-family: monospace; font-size: 0px; text-align: start;&quot;&gt;%3CmxGraphModel%3E%3Croot%3E%3CmxCell%20id%3D%220%22%2F%3E%3CmxCell%20id%3D%221%22%20parent%3D%220%22%2F%3E%3CmxCell%20id%3D%222%22%20value%3D%22process%20when%26lt%3Bdiv%26gt%3B%26amp%3Bnbsp%3Bnew%20event%20available%26lt%3B%2Fdiv%26gt%3B%22%20style%3D%22edgeLabel%3Bhtml%3D1%3Balign%3Dcenter%3BverticalAlign%3Dmiddle%3Bresizable%3D0%3Bpoints%3D%5B%5D%3B%22%20vertex%3D%221%22%20connectable%3D%220%22%20parent%3D%221%22%3E%3CmxGeometry%20x%3D%221642.4666666666667%22%20y%3D%22361.46666666666647%22%20as%3D%22geometry%22%2F%3E%3C%2FmxCell%3E%3C%2Froot%3E%3C%2FmxGraphModel%3E&lt;/span&gt;" style="edgeLabel;html=1;align=center;verticalAlign=middle;resizable=0;points=[];" parent="BDJuLJ0R6PO3ZfZwG7WT-30" vertex="1" connectable="0">
          <mxGeometry x="-0.0118" y="-2" relative="1" as="geometry">
            <mxPoint x="-1" as="offset" />
          </mxGeometry>
        </mxCell>
        <mxCell id="BDJuLJ0R6PO3ZfZwG7WT-33" value="process when&lt;div&gt;event available&lt;/div&gt;" style="edgeLabel;html=1;align=center;verticalAlign=middle;resizable=0;points=[];" parent="BDJuLJ0R6PO3ZfZwG7WT-30" vertex="1" connectable="0">
          <mxGeometry x="-0.0851" y="5" relative="1" as="geometry">
            <mxPoint x="4" y="-37" as="offset" />
          </mxGeometry>
        </mxCell>
        <mxCell id="XL5NGab5W7cVgB7Eb7kB-40" value="kinesis-sticker-request" style="sketch=0;points=[[0,0,0],[0.25,0,0],[0.5,0,0],[0.75,0,0],[1,0,0],[0,1,0],[0.25,1,0],[0.5,1,0],[0.75,1,0],[1,1,0],[0,0.25,0],[0,0.5,0],[0,0.75,0],[1,0.25,0],[1,0.5,0],[1,0.75,0]];outlineConnect=0;fontColor=#232F3E;fillColor=#8C4FFF;strokeColor=#ffffff;dashed=0;verticalLabelPosition=bottom;verticalAlign=top;align=center;html=1;fontSize=12;fontStyle=0;aspect=fixed;shape=mxgraph.aws4.resourceIcon;resIcon=mxgraph.aws4.kinesis;" parent="1" vertex="1">
          <mxGeometry x="1577" y="431" width="78" height="78" as="geometry" />
        </mxCell>
        <mxCell id="XL5NGab5W7cVgB7Eb7kB-41" value="kinesis-vin-decode" style="sketch=0;points=[[0,0,0],[0.25,0,0],[0.5,0,0],[0.75,0,0],[1,0,0],[0,1,0],[0.25,1,0],[0.5,1,0],[0.75,1,0],[1,1,0],[0,0.25,0],[0,0.5,0],[0,0.75,0],[1,0.25,0],[1,0.5,0],[1,0.75,0]];outlineConnect=0;fontColor=#232F3E;fillColor=#8C4FFF;strokeColor=#ffffff;dashed=0;verticalLabelPosition=bottom;verticalAlign=top;align=center;html=1;fontSize=12;fontStyle=0;aspect=fixed;shape=mxgraph.aws4.resourceIcon;resIcon=mxgraph.aws4.kinesis;" parent="1" vertex="1">
          <mxGeometry x="1910" y="435" width="78" height="78" as="geometry" />
        </mxCell>
        <mxCell id="XL5NGab5W7cVgB7Eb7kB-51" value="GET oemPdfUrl" style="swimlane;whiteSpace=wrap;html=1;" parent="1" vertex="1">
          <mxGeometry x="1395" y="-81" width="569" height="348" as="geometry" />
        </mxCell>
        <mxCell id="XL5NGab5W7cVgB7Eb7kB-44" value="reconvelocity-prod-windowstickers/OEM" style="sketch=0;points=[[0,0,0],[0.25,0,0],[0.5,0,0],[0.75,0,0],[1,0,0],[0,1,0],[0.25,1,0],[0.5,1,0],[0.75,1,0],[1,1,0],[0,0.25,0],[0,0.5,0],[0,0.75,0],[1,0.25,0],[1,0.5,0],[1,0.75,0]];outlineConnect=0;fontColor=#232F3E;fillColor=#7AA116;strokeColor=#ffffff;dashed=0;verticalLabelPosition=bottom;verticalAlign=top;align=center;html=1;fontSize=12;fontStyle=0;aspect=fixed;shape=mxgraph.aws4.resourceIcon;resIcon=mxgraph.aws4.s3;" parent="XL5NGab5W7cVgB7Eb7kB-51" vertex="1">
          <mxGeometry x="353" y="140" width="78" height="78" as="geometry" />
        </mxCell>
        <mxCell id="XL5NGab5W7cVgB7Eb7kB-54" value="4. save oem sticker to S3&amp;nbsp;" style="text;html=1;align=center;verticalAlign=middle;resizable=0;points=[];autosize=1;strokeColor=none;fillColor=none;" parent="XL5NGab5W7cVgB7Eb7kB-51" vertex="1">
          <mxGeometry x="0.5" y="95" width="156" height="26" as="geometry" />
        </mxCell>
        <mxCell id="XL5NGab5W7cVgB7Eb7kB-55" value="reconvelocity.vehicle" style="sketch=0;outlineConnect=0;fontColor=#232F3E;gradientColor=none;fillColor=#C925D1;strokeColor=none;dashed=0;verticalLabelPosition=bottom;verticalAlign=top;align=center;html=1;fontSize=12;fontStyle=0;aspect=fixed;pointerEvents=1;shape=mxgraph.aws4.rds_instance;" parent="XL5NGab5W7cVgB7Eb7kB-51" vertex="1">
          <mxGeometry x="197" y="218" width="78" height="78" as="geometry" />
        </mxCell>
        <mxCell id="XL5NGab5W7cVgB7Eb7kB-68" style="edgeStyle=orthogonalEdgeStyle;rounded=0;orthogonalLoop=1;jettySize=auto;html=1;exitX=0.996;exitY=0.304;exitDx=0;exitDy=0;exitPerimeter=0;" parent="XL5NGab5W7cVgB7Eb7kB-51" source="XL5NGab5W7cVgB7Eb7kB-56" target="XL5NGab5W7cVgB7Eb7kB-55" edge="1">
          <mxGeometry relative="1" as="geometry" />
        </mxCell>
        <mxCell id="XL5NGab5W7cVgB7Eb7kB-56" value="&amp;nbsp; 5. save to window_sticker_url&lt;div&gt;&amp;nbsp; &amp;nbsp; &amp;nbsp; to vehicle record&lt;/div&gt;" style="text;html=1;align=left;verticalAlign=middle;resizable=0;points=[];autosize=1;strokeColor=none;fillColor=none;" parent="XL5NGab5W7cVgB7Eb7kB-51" vertex="1">
          <mxGeometry x="0.5" y="118" width="181" height="41" as="geometry" />
        </mxCell>
        <mxCell id="XL5NGab5W7cVgB7Eb7kB-59" value="2. create vehicle if doesn&#39;t exist&amp;nbsp;" style="text;html=1;align=center;verticalAlign=middle;resizable=0;points=[];autosize=1;strokeColor=none;fillColor=none;" parent="XL5NGab5W7cVgB7Eb7kB-51" vertex="1">
          <mxGeometry y="46" width="188" height="26" as="geometry" />
        </mxCell>
        <mxCell id="XL5NGab5W7cVgB7Eb7kB-71" style="edgeStyle=orthogonalEdgeStyle;rounded=0;orthogonalLoop=1;jettySize=auto;html=1;" parent="XL5NGab5W7cVgB7Eb7kB-51" source="XL5NGab5W7cVgB7Eb7kB-66" target="XL5NGab5W7cVgB7Eb7kB-70" edge="1">
          <mxGeometry relative="1" as="geometry" />
        </mxCell>
        <mxCell id="XL5NGab5W7cVgB7Eb7kB-66" value="3. get oem pdf from endpoint" style="text;html=1;align=center;verticalAlign=middle;resizable=0;points=[];autosize=1;strokeColor=none;fillColor=none;" parent="XL5NGab5W7cVgB7Eb7kB-51" vertex="1">
          <mxGeometry x="0.5" y="69" width="171" height="26" as="geometry" />
        </mxCell>
        <mxCell id="XL5NGab5W7cVgB7Eb7kB-69" style="edgeStyle=orthogonalEdgeStyle;rounded=0;orthogonalLoop=1;jettySize=auto;html=1;entryX=0.5;entryY=0;entryDx=0;entryDy=0;entryPerimeter=0;" parent="XL5NGab5W7cVgB7Eb7kB-51" source="XL5NGab5W7cVgB7Eb7kB-54" target="XL5NGab5W7cVgB7Eb7kB-44" edge="1">
          <mxGeometry relative="1" as="geometry" />
        </mxCell>
        <mxCell id="XL5NGab5W7cVgB7Eb7kB-70" value="new matrix" style="sketch=0;outlineConnect=0;fontColor=#232F3E;gradientColor=none;fillColor=#C925D1;strokeColor=none;dashed=0;verticalLabelPosition=bottom;verticalAlign=top;align=center;html=1;fontSize=12;fontStyle=0;aspect=fixed;pointerEvents=1;shape=mxgraph.aws4.dynamodb_dax;" parent="XL5NGab5W7cVgB7Eb7kB-51" vertex="1">
          <mxGeometry x="466" y="46" width="78" height="72" as="geometry" />
        </mxCell>
        <mxCell id="BDJuLJ0R6PO3ZfZwG7WT-4" value="1. vin decode" style="text;html=1;align=center;verticalAlign=middle;resizable=0;points=[];autosize=1;strokeColor=none;fillColor=none;" parent="XL5NGab5W7cVgB7Eb7kB-51" vertex="1">
          <mxGeometry x="0.5" y="25" width="89" height="26" as="geometry" />
        </mxCell>
        <mxCell id="XL5NGab5W7cVgB7Eb7kB-79" value="GET buildData" style="swimlane;whiteSpace=wrap;html=1;" parent="1" vertex="1">
          <mxGeometry x="1424" y="686" width="569" height="348" as="geometry" />
        </mxCell>
        <mxCell id="BDJuLJ0R6PO3ZfZwG7WT-3" value="1. vin decode&lt;div&gt;2. get standard options&lt;br&gt;3. get build data based on providers&lt;/div&gt;&lt;div&gt;4. persist build data to RDS&lt;/div&gt;&lt;div&gt;5. persist build data to S3&lt;/div&gt;" style="text;html=1;align=left;verticalAlign=middle;resizable=0;points=[];autosize=1;strokeColor=none;fillColor=none;" parent="XL5NGab5W7cVgB7Eb7kB-79" vertex="1">
          <mxGeometry x="22" y="40" width="209" height="84" as="geometry" />
        </mxCell>
        <mxCell id="BDJuLJ0R6PO3ZfZwG7WT-5" value="new matrix" style="sketch=0;outlineConnect=0;fontColor=#232F3E;gradientColor=none;fillColor=#C925D1;strokeColor=none;dashed=0;verticalLabelPosition=bottom;verticalAlign=top;align=center;html=1;fontSize=12;fontStyle=0;aspect=fixed;pointerEvents=1;shape=mxgraph.aws4.dynamodb_dax;" parent="XL5NGab5W7cVgB7Eb7kB-79" vertex="1">
          <mxGeometry x="474" y="46" width="78" height="72" as="geometry" />
        </mxCell>
        <mxCell id="BDJuLJ0R6PO3ZfZwG7WT-6" value="" style="endArrow=classic;html=1;rounded=0;" parent="XL5NGab5W7cVgB7Eb7kB-79" target="BDJuLJ0R6PO3ZfZwG7WT-5" edge="1">
          <mxGeometry width="50" height="50" relative="1" as="geometry">
            <mxPoint x="221" y="83" as="sourcePoint" />
            <mxPoint x="271" y="33" as="targetPoint" />
          </mxGeometry>
        </mxCell>
        <mxCell id="BDJuLJ0R6PO3ZfZwG7WT-7" value="prod-build-data-caches" style="sketch=0;points=[[0,0,0],[0.25,0,0],[0.5,0,0],[0.75,0,0],[1,0,0],[0,1,0],[0.25,1,0],[0.5,1,0],[0.75,1,0],[1,1,0],[0,0.25,0],[0,0.5,0],[0,0.75,0],[1,0.25,0],[1,0.5,0],[1,0.75,0]];outlineConnect=0;fontColor=#232F3E;fillColor=#7AA116;strokeColor=#ffffff;dashed=0;verticalLabelPosition=bottom;verticalAlign=top;align=center;html=1;fontSize=12;fontStyle=0;aspect=fixed;shape=mxgraph.aws4.resourceIcon;resIcon=mxgraph.aws4.s3;" parent="XL5NGab5W7cVgB7Eb7kB-79" vertex="1">
          <mxGeometry x="242" y="197" width="78" height="78" as="geometry" />
        </mxCell>
        <mxCell id="BDJuLJ0R6PO3ZfZwG7WT-8" value="reconvelocity.vehicle" style="sketch=0;outlineConnect=0;fontColor=#232F3E;gradientColor=none;fillColor=#C925D1;strokeColor=none;dashed=0;verticalLabelPosition=bottom;verticalAlign=top;align=center;html=1;fontSize=12;fontStyle=0;aspect=fixed;pointerEvents=1;shape=mxgraph.aws4.rds_instance;" parent="XL5NGab5W7cVgB7Eb7kB-79" vertex="1">
          <mxGeometry x="364" y="124" width="78" height="78" as="geometry" />
        </mxCell>
        <mxCell id="BDJuLJ0R6PO3ZfZwG7WT-9" value="" style="endArrow=classic;html=1;rounded=0;" parent="XL5NGab5W7cVgB7Eb7kB-79" target="BDJuLJ0R6PO3ZfZwG7WT-8" edge="1">
          <mxGeometry width="50" height="50" relative="1" as="geometry">
            <mxPoint x="178" y="98" as="sourcePoint" />
            <mxPoint x="224" y="48" as="targetPoint" />
            <Array as="points">
              <mxPoint x="403" y="95" />
            </Array>
          </mxGeometry>
        </mxCell>
        <mxCell id="BDJuLJ0R6PO3ZfZwG7WT-10" value="" style="endArrow=classic;html=1;rounded=0;" parent="XL5NGab5W7cVgB7Eb7kB-79" edge="1">
          <mxGeometry width="50" height="50" relative="1" as="geometry">
            <mxPoint x="164" y="111" as="sourcePoint" />
            <mxPoint x="282" y="195" as="targetPoint" />
            <Array as="points">
              <mxPoint x="282" y="111" />
            </Array>
          </mxGeometry>
        </mxCell>
        <mxCell id="BDJuLJ0R6PO3ZfZwG7WT-19" value="" style="endArrow=classic;html=1;rounded=0;exitX=1;exitY=0.5;exitDx=0;exitDy=0;entryX=1;entryY=0.5;entryDx=0;entryDy=0;entryPerimeter=0;" parent="1" source="XL5NGab5W7cVgB7Eb7kB-79" target="XL5NGab5W7cVgB7Eb7kB-41" edge="1">
          <mxGeometry width="50" height="50" relative="1" as="geometry">
            <mxPoint x="2025" y="862" as="sourcePoint" />
            <mxPoint x="2075" y="812" as="targetPoint" />
            <Array as="points">
              <mxPoint x="2041" y="860" />
              <mxPoint x="2041" y="474" />
            </Array>
          </mxGeometry>
        </mxCell>
        <mxCell id="BDJuLJ0R6PO3ZfZwG7WT-20" value="push audit event&amp;nbsp;&lt;div&gt;to stream&lt;/div&gt;" style="edgeLabel;html=1;align=center;verticalAlign=middle;resizable=0;points=[];" parent="BDJuLJ0R6PO3ZfZwG7WT-19" vertex="1" connectable="0">
          <mxGeometry x="0.016" y="1" relative="1" as="geometry">
            <mxPoint y="1" as="offset" />
          </mxGeometry>
        </mxCell>
        <mxCell id="BDJuLJ0R6PO3ZfZwG7WT-23" style="edgeStyle=orthogonalEdgeStyle;rounded=0;orthogonalLoop=1;jettySize=auto;html=1;exitX=1;exitY=0.5;exitDx=0;exitDy=0;entryX=0.5;entryY=0;entryDx=0;entryDy=0;entryPerimeter=0;" parent="1" source="XL5NGab5W7cVgB7Eb7kB-51" target="XL5NGab5W7cVgB7Eb7kB-41" edge="1">
          <mxGeometry relative="1" as="geometry">
            <Array as="points">
              <mxPoint x="2049" y="104" />
              <mxPoint x="2049" y="356" />
              <mxPoint x="1949" y="356" />
            </Array>
          </mxGeometry>
        </mxCell>
        <mxCell id="BDJuLJ0R6PO3ZfZwG7WT-24" value="push audit event&amp;nbsp;&lt;div&gt;to stream&lt;/div&gt;" style="edgeLabel;html=1;align=center;verticalAlign=middle;resizable=0;points=[];" parent="BDJuLJ0R6PO3ZfZwG7WT-23" vertex="1" connectable="0">
          <mxGeometry x="-0.3187" relative="1" as="geometry">
            <mxPoint as="offset" />
          </mxGeometry>
        </mxCell>
        <mxCell id="BDJuLJ0R6PO3ZfZwG7WT-28" style="edgeStyle=orthogonalEdgeStyle;rounded=0;orthogonalLoop=1;jettySize=auto;html=1;exitX=0.5;exitY=0;exitDx=0;exitDy=0;entryX=1;entryY=0.5;entryDx=0;entryDy=0;entryPerimeter=0;" parent="1" source="XL5NGab5W7cVgB7Eb7kB-79" target="XL5NGab5W7cVgB7Eb7kB-40" edge="1">
          <mxGeometry relative="1" as="geometry" />
        </mxCell>
        <mxCell id="BDJuLJ0R6PO3ZfZwG7WT-34" value="push event on&lt;div&gt;enrichment&lt;/div&gt;" style="edgeLabel;html=1;align=center;verticalAlign=middle;resizable=0;points=[];" parent="BDJuLJ0R6PO3ZfZwG7WT-28" vertex="1" connectable="0">
          <mxGeometry x="-0.2881" y="-2" relative="1" as="geometry">
            <mxPoint as="offset" />
          </mxGeometry>
        </mxCell>
        <mxCell id="xIlVtN34nXRh2zik4boM-6" value="vin decode&amp;nbsp;&lt;div&gt;&lt;br&gt;&lt;/div&gt;&lt;div&gt;chromedata microservice&lt;/div&gt;" style="whiteSpace=wrap;html=1;verticalAlign=top;fillColor=#F58534;dashed=0;gradientColor=none;" parent="1" vertex="1">
          <mxGeometry x="976.75" y="197" width="131.5" height="93" as="geometry" />
        </mxCell>
      </root>
    </mxGraphModel>
  </diagram>
</mxfile>
